# xmcd
#
# Track frame offsets:
#	150
#	12794
#	24778
#	39251
#	49070
#	58538
#	77143
#	88562
#	103109
#	113498
#	125585
#	139334
#	156405
#	168518
#
# Disc length: 2460 seconds
# Revision: 0
# Processed by: cddbd v1.5.2PL0 Copyright (c) Steve Scherf et al.
# Submitted via: dBpowerAMP V12.0
#
DISCID=aa099a0e
DTITLE=Wayne Taylor and Appaloosa - It's Gonna Be a Beautiful Day!
DYEAR=2012
DGENRE=
TTITLE0=She Put the Tears in My Eyes
TTITLE1=The Hills of Tennessee
TTITLE2=Two Kindred Hearts
TTITLE3=Let it Go
TTITLE4=Mash Your Finger
TTITLE5=The Pain
TTITLE6=It's Gonna Be a Beautiful Day
TTITLE7=Ole Paint
TTITLE8=Cry Lonesome Dove
TTITLE9=Caroline
TTITLE10=Lay My Body Down
TTITLE11=Terra's Wedding Song
TTITLE12=Sing Me to Memphis
TTITLE13=A Time to Fly
EXTD=
EXTT0=
EXTT1=
EXTT2=
EXTT3=
EXTT4=
EXTT5=
EXTT6=
EXTT7=
EXTT8=
EXTT9=
EXTT10=
EXTT11=
EXTT12=
EXTT13=
PLAYORDER=
